<?xml version="1.0" standalone="no"?>
<!DOCTYPE svg PUBLIC "-//W3C//DTD SVG 20010904//EN"
 "http://www.w3.org/TR/2001/REC-SVG-20010904/DTD/svg10.dtd">
<svg version="1.0" xmlns="http://www.w3.org/2000/svg"
 width="28.000000pt" height="33.000000pt" viewBox="0 0 28.000000 33.000000"
 preserveAspectRatio="xMidYMid meet">
<metadata>
Created by potrace 1.10, written by Peter Selinger 2001-2011
</metadata>
<g transform="translate(0.000000,33.000000) scale(0.100000,-0.100000)"
fill="#000000" stroke="none">
<path d="M101 286 c-9 -10 -8 -16 4 -26 22 -18 18 -43 -11 -71 -21 -19 -25
-30 -20 -58 3 -18 12 -44 21 -57 21 -32 69 -33 89 -1 20 31 30 74 21 94 -4 10
-7 37 -6 61 2 36 0 42 -17 42 -11 0 -22 7 -26 15 -7 19 -40 20 -55 1z m49 -40
c0 -23 9 -45 26 -65 20 -24 25 -38 19 -59 -10 -41 -34 -63 -55 -52 -10 5 -20
7 -23 4 -3 -3 -13 8 -22 25 -19 38 -11 41 10 4 l15 -28 -6 36 c-4 25 0 47 11
69 9 18 12 30 7 26 -5 -3 -7 6 -4 20 3 17 -2 30 -14 39 -18 14 -17 14 9 15 24
0 27 -3 27 -34z m40 -15 c0 -34 -15 -49 -24 -25 -9 24 -6 42 4 19 8 -19 9 -19
9 2 1 12 -5 24 -11 26 -8 3 -6 6 5 6 12 1 17 -7 17 -28z"/>
</g>
</svg>
